<?xml version="1.0" standalone="no"?>
<!DOCTYPE svg PUBLIC "-//W3C//DTD SVG 20010904//EN"
 "http://www.w3.org/TR/2001/REC-SVG-20010904/DTD/svg10.dtd">
<svg version="1.0" xmlns="http://www.w3.org/2000/svg"
 width="433.000000pt" height="433.000000pt" viewBox="0 0 433.000000 433.000000"
 preserveAspectRatio="xMidYMid meet">

<g transform="translate(0.000000,433.000000) scale(0.100000,-0.100000)"
fill="#000000" stroke="none">
<path d="M2188 4218 c-8 -7 -41 -51 -73 -98 -101 -148 -166 -240 -174 -244 -4
-3 -45 21 -92 53 -46 31 -128 87 -183 124 -54 37 -101 67 -105 67 -23 -1 -40
-41 -91 -221 -40 -139 -63 -204 -72 -203 -13 2 -210 53 -308 81 -82 23 -124
27 -137 11 -6 -8 -7 -46 -2 -108 4 -52 9 -147 12 -211 l5 -117 -36 -6 c-21 -3
-71 -6 -112 -7 -136 -1 -302 -22 -313 -40 -7 -12 1 -43 33 -120 82 -197 120
-292 117 -295 -2 -2 -89 -39 -315 -134 -79 -34 -102 -48 -102 -63 0 -10 35
-59 78 -109 42 -50 105 -123 140 -164 l62 -73 -67 -58 c-68 -59 -134 -118
-227 -204 -31 -29 -47 -52 -44 -61 5 -13 71 -53 289 -177 25 -14 56 -33 69
-41 l22 -16 -50 -89 c-27 -50 -75 -134 -106 -189 -31 -54 -56 -106 -56 -116 0
-34 1 -34 313 -92 67 -12 117 -26 117 -33 0 -6 -9 -60 -21 -121 -11 -60 -27
-147 -34 -193 -8 -46 -17 -91 -20 -101 -8 -25 23 -53 49 -46 12 3 62 10 111
16 50 6 117 15 150 20 33 5 79 11 101 14 l42 6 11 -63 c6 -34 15 -96 21 -137
31 -234 34 -246 57 -254 10 -4 90 30 207 89 190 94 191 95 206 74 8 -12 56
-101 105 -198 79 -152 94 -176 116 -179 19 -2 34 7 60 36 19 21 85 92 146 157
l113 117 161 -156 c95 -92 169 -156 181 -156 15 0 36 36 99 166 44 91 86 182
94 201 8 19 18 32 22 30 5 -3 46 -23 93 -45 325 -152 333 -154 344 -114 2 10
9 64 16 122 6 58 15 135 20 172 6 37 10 81 10 99 0 31 1 32 38 25 20 -3 118
-13 216 -22 99 -8 183 -17 187 -20 17 -10 40 29 33 55 -3 14 -10 42 -14 61 -4
19 -22 97 -39 172 -17 76 -31 144 -31 152 0 14 14 19 195 61 215 51 230 55
242 71 7 9 11 20 9 23 -2 3 -52 85 -111 181 -59 96 -107 178 -108 183 -2 7
169 119 310 204 34 20 65 44 68 52 7 19 -40 64 -213 205 -109 88 -121 101
-110 116 7 10 70 89 141 175 70 86 127 163 127 171 0 19 -32 37 -145 79 -133
49 -259 98 -264 101 -2 2 4 22 12 46 82 229 100 280 119 326 30 77 25 80 -152
87 -80 3 -178 8 -218 11 l-72 6 6 223 c9 273 17 261 -137 211 -170 -55 -303
-95 -305 -93 0 1 -27 83 -58 182 -80 249 -78 244 -98 251 -20 6 -22 5 -138
-81 -177 -131 -232 -167 -240 -159 -4 5 -63 83 -131 174 -144 193 -141 191
-171 168z m157 -257 c71 -94 134 -172 140 -175 7 -2 61 32 121 77 217 164 244
181 244 156 0 -21 120 -382 131 -396 7 -7 19 -13 28 -13 9 0 99 27 201 60 102
33 186 60 188 60 1 0 2 -98 2 -218 0 -156 3 -221 12 -230 8 -8 57 -12 153 -12
77 0 171 -3 208 -7 57 -5 67 -9 62 -22 -8 -18 -57 -151 -108 -294 -20 -54 -34
-104 -31 -112 3 -8 38 -26 77 -40 40 -15 81 -31 92 -35 11 -5 66 -26 123 -46
56 -21 102 -42 102 -48 0 -5 -11 -21 -24 -35 -40 -43 -246 -305 -246 -313 0
-11 23 -32 104 -98 163 -132 214 -176 213 -185 0 -11 -37 -36 -220 -150 -71
-43 -132 -86 -137 -95 -6 -11 22 -64 101 -194 61 -98 108 -180 107 -182 -2 -1
-62 -17 -133 -34 -72 -17 -161 -38 -198 -47 -38 -9 -78 -23 -89 -32 -18 -15
-19 -22 -10 -56 6 -22 15 -60 21 -85 6 -25 19 -83 30 -130 11 -47 23 -101 26
-121 l7 -36 -64 8 c-35 4 -115 13 -178 19 -63 6 -132 13 -152 15 -51 7 -65
-11 -73 -92 -3 -38 -10 -104 -15 -148 -5 -44 -12 -106 -16 -137 l-5 -57 -57
25 c-31 14 -121 55 -199 91 -81 37 -148 63 -157 60 -15 -6 -82 -137 -161 -314
-15 -35 -32 -63 -38 -63 -6 0 -74 62 -151 139 -78 76 -151 144 -164 150 -20
10 -26 8 -50 -16 -15 -16 -82 -86 -149 -155 l-122 -127 -64 122 c-36 67 -82
154 -103 194 -20 40 -43 74 -51 77 -7 3 -97 -36 -198 -86 -101 -51 -186 -90
-189 -87 -3 3 -10 39 -16 80 -7 41 -16 101 -21 134 -5 33 -13 91 -18 128 -12
89 -22 101 -81 93 -156 -19 -330 -45 -354 -52 -21 -7 -20 2 15 181 10 55 24
127 30 160 6 33 12 68 14 77 5 29 -17 38 -172 68 -236 47 -253 51 -253 57 0 3
29 55 64 117 35 61 78 138 96 171 18 33 38 68 44 77 16 26 -6 43 -189 148 -88
50 -164 95 -168 99 -4 4 18 30 50 56 32 27 85 74 118 104 34 31 82 75 108 98
48 44 52 50 39 70 -8 12 -93 111 -162 188 -65 71 -100 115 -100 125 0 5 10 12
23 16 12 4 45 17 72 29 28 12 107 46 178 75 107 44 127 56 127 74 0 12 -34
104 -75 205 -42 101 -74 186 -71 189 3 3 95 9 203 14 109 5 209 14 222 19 l24
10 -6 162 c-4 89 -10 186 -13 216 -7 50 -6 54 12 49 10 -3 55 -16 99 -28 44
-12 94 -26 110 -30 170 -48 205 -54 219 -40 7 8 37 102 67 208 34 125 57 191
64 188 7 -2 89 -56 184 -120 94 -64 175 -116 179 -116 12 0 26 14 51 49 70 99
166 240 183 268 11 18 23 31 28 28 4 -2 65 -81 135 -174z"/>
<path d="M2194 4012 c-5 -4 -23 -27 -40 -52 -17 -25 -46 -65 -63 -90 -66 -94
-81 -120 -75 -134 8 -22 17 -23 192 -18 215 6 212 1 102 167 -80 121 -97 140
-116 127z"/>
<path d="M2659 3830 c-68 -50 -127 -97 -131 -104 -13 -23 22 -42 157 -85 183
-57 181 -57 195 -31 8 15 8 30 1 53 -6 18 -22 77 -37 132 -25 96 -37 125 -54
125 -4 0 -63 -41 -131 -90z"/>
<path d="M1597 3883 c-24 -49 -79 -262 -72 -283 8 -25 26 -25 95 0 95 36 164
61 195 72 71 26 72 50 4 103 -29 22 -66 52 -83 66 -53 44 -93 69 -110 69 -8 0
-22 -12 -29 -27z"/>
<path d="M2050 3674 c-518 -66 -950 -364 -1174 -812 -177 -353 -204 -776 -74
-1152 160 -464 560 -829 1030 -944 463 -112 945 -7 1298 282 274 225 445 508
516 855 20 99 24 147 24 295 0 114 -5 204 -15 252 -65 337 -181 557 -414 790
-224 224 -445 343 -757 410 -97 21 -348 35 -434 24z m450 -138 c101 -23 231
-71 335 -124 130 -65 309 -209 404 -324 53 -64 58 -74 49 -99 -6 -18 -5 -54 2
-106 6 -43 15 -190 20 -328 7 -198 12 -264 27 -316 35 -119 97 -206 168 -236
49 -20 53 -30 35 -95 -29 -103 -175 -300 -252 -339 -27 -14 -58 -19 -111 -19
-87 0 -122 11 -197 58 -87 56 -260 138 -319 152 -114 27 -261 -12 -315 -83
-20 -26 -33 -62 -47 -134 -25 -132 -48 -174 -120 -222 -159 -106 -243 -69
-441 197 -134 179 -225 250 -354 277 -38 8 -78 12 -90 9 -32 -8 -239 42 -309
74 -80 38 -132 84 -145 130 -19 69 -7 458 15 480 2 2 52 -35 112 -83 184 -147
461 -273 574 -263 62 6 120 44 144 95 26 53 30 154 11 248 -9 42 -16 104 -16
138 0 59 0 60 20 42 29 -26 58 -92 85 -194 42 -154 95 -236 186 -286 45 -24
69 -30 141 -33 196 -10 321 74 367 246 7 23 22 48 34 56 12 8 73 29 135 46
136 36 199 67 263 127 59 56 89 114 89 177 0 60 -25 108 -87 167 -67 65 -132
95 -286 130 -87 20 -161 45 -217 72 -148 72 -295 239 -326 371 l-7 29 159 -6
c116 -4 188 -13 264 -31z m-139 -2517 c107 -44 189 -60 307 -61 122 -1 120 -4
-43 -61 -139 -48 -260 -67 -432 -67 l-143 0 19 38 c51 99 138 182 191 182 15
0 60 -14 101 -31z"/>
<path d="M1083 3614 c-3 -9 -3 -78 0 -154 10 -218 4 -216 183 -68 139 114 140
115 128 135 -12 20 -231 101 -277 102 -17 1 -30 -5 -34 -15z"/>
<path d="M3225 3615 c-22 -8 -79 -26 -127 -40 -88 -27 -109 -45 -86 -72 14
-17 226 -176 256 -192 36 -19 50 18 60 163 6 71 8 136 5 143 -6 16 -56 16
-108 -2z"/>
<path d="M3393 3193 c-7 -18 -5 -22 100 -177 42 -63 85 -117 94 -120 23 -9 36
8 73 94 18 41 43 99 57 129 23 50 23 55 7 72 -15 17 -33 19 -171 19 -134 0
-154 -2 -160 -17z"/>
<path d="M696 3184 c-9 -8 -16 -17 -16 -18 0 -4 50 -129 60 -151 5 -11 14 -33
20 -50 33 -91 51 -109 80 -78 32 34 170 264 170 282 0 28 -18 31 -165 31 -108
0 -137 -3 -149 -16z"/>
<path d="M3655 2747 c-11 -18 -13 -31 -6 -48 5 -13 14 -42 20 -64 59 -215 66
-234 93 -235 8 0 197 200 208 221 5 8 5 20 1 27 -4 6 -65 34 -137 61 -71 27
-137 52 -146 56 -11 4 -22 -1 -33 -18z"/>
<path d="M690 2741 c-8 -5 -56 -23 -107 -40 -114 -37 -133 -47 -133 -70 0 -16
68 -102 172 -215 37 -41 37 -41 57 -21 17 18 38 91 72 263 5 24 11 48 15 53
16 27 -41 50 -76 30z"/>
<path d="M3754 2252 c-7 -4 -16 -75 -24 -170 -11 -150 -11 -165 5 -182 16 -18
18 -18 48 -1 18 10 75 41 129 70 131 71 133 78 36 156 -34 28 -80 66 -102 86
-44 39 -74 53 -92 41z"/>
<path d="M534 2166 c-122 -91 -138 -108 -129 -135 3 -12 10 -21 14 -21 4 0 57
-29 117 -65 60 -36 120 -68 133 -72 30 -7 42 11 36 57 -2 19 -9 87 -16 150
-12 125 -21 160 -42 160 -8 0 -59 -33 -113 -74z"/>
<path d="M3673 1738 c-5 -7 -16 -29 -23 -48 -7 -19 -19 -48 -26 -65 -80 -188
-86 -208 -58 -219 16 -6 115 6 209 25 28 6 60 12 71 14 30 7 37 33 17 64 -9
14 -22 35 -27 46 -6 11 -35 59 -65 108 -53 86 -76 103 -98 75z"/>
<path d="M664 1673 c-21 -32 -54 -83 -74 -113 -46 -71 -51 -85 -37 -103 11
-15 40 -22 228 -58 74 -14 99 -9 99 20 0 11 -31 85 -70 165 -82 172 -88 176
-146 89z"/>
<path d="M3364 1199 c-156 -180 -157 -181 -108 -199 52 -20 266 -50 285 -39
11 5 19 12 19 14 0 23 -65 293 -72 303 -22 26 -48 9 -124 -79z"/>
<path d="M944 1261 c-20 -22 -85 -267 -77 -287 8 -21 34 -25 113 -14 41 5 102
13 135 16 70 8 95 18 95 41 0 14 -206 238 -236 256 -9 5 -20 0 -30 -12z"/>
<path d="M2943 857 c-79 -45 -145 -88 -148 -96 -3 -8 2 -22 12 -32 31 -29 250
-139 266 -133 15 6 29 71 41 195 3 30 8 69 12 85 5 29 -14 65 -34 64 -4 -1
-71 -38 -149 -83z"/>
<path d="M1315 909 c-10 -14 5 -280 17 -301 5 -10 15 -18 23 -18 23 0 269 126
285 145 13 15 12 19 -8 36 -31 25 -277 149 -296 149 -8 0 -18 -5 -21 -11z"/>
<path d="M2500 699 c-52 -10 -117 -23 -144 -28 -49 -8 -70 -25 -61 -49 7 -18
177 -208 193 -216 6 -3 19 -3 28 1 23 9 146 271 139 294 -8 23 -29 23 -155 -2z"/>
<path d="M1792 698 c-17 -17 -16 -25 22 -114 60 -143 84 -183 108 -184 11 0
228 220 228 230 0 23 -36 38 -116 49 -49 7 -111 17 -137 22 -64 12 -91 11
-105 -3z"/>
</g>
</svg>
